<svg class="svg-icon" style="width: 1em; height: 1em;vertical-align: middle;fill: currentColor;overflow: hidden;" viewBox="0 0 1024 1024" version="1.1" xmlns="http://www.w3.org/2000/svg"><path d="M512 512m-414 0a414 414 0 1 0 828 0 414 414 0 1 0-828 0Z" fill="#F0C48A" /><path d="M862.4 765.6H161.6c-82.8 0-149.8-67.2-149.8-149.8V408.4c0-82.8 67.2-149.8 149.8-149.8h700.8c82.8 0 149.8 67.2 149.8 149.8v207.4c0 82.6-67 149.8-149.8 149.8z" fill="#A4CFF2" /><path d="M925.4 272.2v479.4c51.4-23.8 87-75.8 87-136V408.4c-0.2-60.4-35.8-112.4-87-136.2z" fill="#7BABF1" /><path d="M663.8 707.2H360.2c-24 0-43.2-19.4-43.2-43.2V360.2c0-24 19.4-43.2 43.2-43.2h303.6c24 0 43.2 19.4 43.2 43.2v303.6c0.2 24-19.2 43.4-43.2 43.4z" fill="#FFFFFF" /><path d="M263.2 476.8H196.8v-66.4H126.4v66.4H60v70.4h66.4v66.4h70.4v-66.4h66.4z" fill="#FD919E" /><path d="M862.4 439.2m-28.8 0a28.8 28.8 0 1 0 57.6 0 28.8 28.8 0 1 0-57.6 0Z" fill="#FD919E" /><path d="M862.4 584.8m-28.8 0a28.8 28.8 0 1 0 57.6 0 28.8 28.8 0 1 0-57.6 0Z" fill="#FD919E" /><path d="M935.2 512m-28.8 0a28.8 28.8 0 1 0 57.6 0 28.8 28.8 0 1 0-57.6 0Z" fill="#FD919E" /><path d="M789.6 512m-28.8 0a28.8 28.8 0 1 0 57.6 0 28.8 28.8 0 1 0-57.6 0Z" fill="#FD919E" /><path d="M862.4 479.6c-22.4 0-40.4-18.2-40.4-40.4 0-22.4 18.2-40.4 40.4-40.4s40.4 18.2 40.4 40.4c0.2 22.2-18 40.4-40.4 40.4z m0-57.4c-9.4 0-17 7.6-17 17s7.6 17 17 17 17-7.6 17-17-7.6-17-17-17zM862.4 625.4c-22.4 0-40.4-18.2-40.4-40.4s18.2-40.4 40.4-40.4 40.4 18.2 40.4 40.4-18 40.4-40.4 40.4z m0-57.6c-9.4 0-17 7.6-17 17s7.6 17 17 17 17-7.6 17-17-7.6-17-17-17zM935.2 552.4c-22.4 0-40.4-18.2-40.4-40.4s18.2-40.4 40.4-40.4c22.4 0 40.4 18.2 40.4 40.4s-18 40.4-40.4 40.4z m0-57.4c-9.4 0-17 7.6-17 17s7.6 17 17 17 17-7.6 17-17-7.6-17-17-17zM789.6 552.4c-22.4 0-40.4-18.2-40.4-40.4s18.2-40.4 40.4-40.4 40.4 18 40.4 40.4-18 40.4-40.4 40.4z m0-57.4c-9.4 0-17 7.6-17 17s7.6 17 17 17 17-7.6 17-17-7.6-17-17-17z" fill="#4C4372" /><path d="M232 476.6h31.2v71H232z" fill="#E8677D" /><path d="M196.8 625.4H126.4c-6.4 0-11.8-5.2-11.8-11.8v-54.6H60c-6.4 0-11.8-5.2-11.8-11.8v-70.4c0-6.4 5.2-11.8 11.8-11.8h54.6v-54.6c0-6.4 5.2-11.8 11.8-11.8h70.4c6.4 0 11.8 5.2 11.8 11.8v54.6h54.6c6.4 0 11.8 5.2 11.8 11.8v70.4c0 6.4-5.2 11.8-11.8 11.8h-54.6v54.6c-0.2 6.4-5.4 11.8-11.8 11.8z m-58.6-23.6h47v-54.6c0-6.4 5.2-11.8 11.8-11.8h54.6v-47H196.8c-6.4 0-11.8-5.2-11.8-11.8V422H138.2v54.6c0 6.4-5.2 11.8-11.8 11.8H71.8v47h54.6c6.4 0 11.8 5.2 11.8 11.8v54.6z" fill="#4C4372" /><path d="M862.4 777.4H161.6C72.4 777.4 0 704.8 0 615.6V408.4c0-89.2 72.4-161.6 161.6-161.6h700.8c89.2 0 161.6 72.4 161.6 161.6v207.4c0 89-72.4 161.6-161.6 161.6zM161.6 270.2c-76.2 0-138.2 62-138.2 138.2v207.4c0 76.2 62 138.2 138.2 138.2h700.8c76.2 0 138.2-62 138.2-138.2V408.4c0-76.2-62-138.2-138.2-138.2H161.6z" fill="#4C4372" /><path d="M668 705.2h-22.2V319.8H668c21.6 0 39 17.4 39 39v307.4c0.2 21.6-17.4 39-39 39z" fill="#D3E6F8" /><path d="M663.8 718.8H360.2c-30.4 0-55-24.6-55-55V360.2c0-30.4 24.6-55 55-55h303.6c30.4 0 55 24.6 55 55v303.6c0 30.4-24.6 55-55 55zM360.2 328.6c-17.4 0-31.6 14.2-31.6 31.6v303.6c0 17.4 14.2 31.6 31.6 31.6h303.6c17.4 0 31.6-14.2 31.6-31.6V360.2c0-17.4-14.2-31.6-31.6-31.6H360.2z" fill="#4C4372" /></svg>